<svg height="55.154" viewBox="0 0 85 55.154" width="85" xmlns="http://www.w3.org/2000/svg"><path d="m402.37-519.362a13.511 13.511 0 0 1 -3.424-.459 12.954 12.954 0 0 1 -8.01-6.377 12.8 12.8 0 0 1 -.845-10.215 13.88 13.88 0 0 1 4.361-6.133c.627-.539.993-.925 1.012-1.3s-.3-.768-.98-1.485a16.7 16.7 0 0 1 -4.025-6.222 11.926 11.926 0 0 1 .254-7.944 12.523 12.523 0 0 1 11.857-8.1h.08a12.192 12.192 0 0 1 5.927 1.455 13.882 13.882 0 0 1 4.5 4.087 2.931 2.931 0 0 0 2.563 1.379h.126c.277-.007.574-.01.932-.01h.742.1.855c.616 0 1.088-.009 1.531-.03a2.151 2.151 0 0 0 1.569-.471 2.075 2.075 0 0 0 .3-1.562c-.3-3.728.5-6.49 2.525-8.69a10 10 0 0 1 7.33-3.08 10.875 10.875 0 0 1 3.524.588 9.442 9.442 0 0 1 4.468 3.218 9.78 9.78 0 0 1 1.959 5.21c.033.88.033 1.81 0 2.689a1.6 1.6 0 0 0 1.673 1.836c.279.011.558.024.837.037.727.033 1.475.068 2.212.068a16.757 16.757 0 0 0 1.968-.1 3.427 3.427 0 0 0 2-1.344 12.917 12.917 0 0 1 8.362-5.542 13.122 13.122 0 0 1 2.437-.231 12.33 12.33 0 0 1 5.739 1.4 12.724 12.724 0 0 1 4.338 3.706 12.46 12.46 0 0 1 1.882 11.163 13.945 13.945 0 0 1 -4.164 6.656 1.373 1.373 0 0 0 -.586 1.005 1.361 1.361 0 0 0 .651.963 14.306 14.306 0 0 1 4.722 6.427 11.253 11.253 0 0 1 .638 5.43 13.7 13.7 0 0 1 -1.775 5.225 13.722 13.722 0 0 1 -3.685 4.131 11.361 11.361 0 0 1 -5.082 2.134 15.914 15.914 0 0 1 -2.306.174c-4.366 0-8.026-2-10.876-5.946a2.942 2.942 0 0 0 -2.558-1.345h-.015c-4.366.031-9.314.066-14.151.066l-10.855.033c-.9 0-1.8-.008-2.658-.017h-.006c-.808-.008-1.724-.017-2.616-.017a7.273 7.273 0 0 0 -5.443 2.722c-2.924 3.196-6.262 4.818-9.914 4.818zm29.53-51.123a4.2 4.2 0 0 0 -4.2 4.2 4.2 4.2 0 0 0 4.2 4.2 4.2 4.2 0 0 0 4.2-4.2 4.2 4.2 0 0 0 -4.2-4.2z" fill="#7992c2" transform="translate(-389.405 574.516)"/></svg>