<svg xmlns="http://www.w3.org/2000/svg" width="74.998" height="63.074" viewBox="0 0 74.998 63.074">
  <g id="medaille-forme-couronne" transform="translate(-8.493 -8.789)">
    <path id="Subtraction_4" data-name="Subtraction 4" d="M747.2-532.064h0c-.16,0-.333-.005-.514-.016-1.744-.107-3.558-.225-5.158-.329-5.4-.351-10.989-.714-16.5-.862-2.357-.061-4.9-.091-7.776-.091-3.1,0-6.254.035-9.3.068h-.03c-1.7.019-3.457.038-5.184.051-1.542.015-3.1.074-4.611.132-1.2.046-2.44.093-3.669.118q-.146,0-.284,0c-2.2,0-2.821-.643-2.9-2.994a161.85,161.85,0,0,0-2.3-23.317c-.3-1.641-.67-3.309-1.031-4.922-.145-.649-.295-1.316-.437-1.973a2.749,2.749,0,0,0-1.689-2.049,4.263,4.263,0,0,1-2.824-4.209,4.159,4.159,0,0,1,2.714-3.821,5.441,5.441,0,0,1,1.763-.315,4.308,4.308,0,0,1,3.056,1.284,4.9,4.9,0,0,1,1.274,3.628,4.959,4.959,0,0,0,1.412,3.351,5.886,5.886,0,0,0,3.49,1.689,5.626,5.626,0,0,0,.695.043,5.205,5.205,0,0,0,5.12-3.838,9.424,9.424,0,0,0,.212-2.052q0-.15.01-.3a2.4,2.4,0,0,0-1.246-2.021,4.761,4.761,0,0,1-2.244-4.514,4.238,4.238,0,0,1,4.272-3.884c.089,0,.18,0,.269.008a4.187,4.187,0,0,1,4.1,4.431,14.055,14.055,0,0,1-.332,1.828,2.868,2.868,0,0,0,1.191,3.516,2.8,2.8,0,0,0,1.5.417,3.577,3.577,0,0,0,2.182-.777,6.606,6.606,0,0,0,2.361-3.728,6.908,6.908,0,0,0-.422-4.414c-.1-.227-.21-.46-.314-.685l0-.008a13.5,13.5,0,0,1-1.261-3.543,7.667,7.667,0,0,1,1.638-6.244,7.958,7.958,0,0,1,6.117-2.729l.236,0a8.131,8.131,0,0,1,7.189,4.085,7.613,7.613,0,0,1-.06,7.743,7.949,7.949,0,0,0-1.163,5.164,7.952,7.952,0,0,0,1.994,4.25,3.719,3.719,0,0,0,2.729,1.291,2.62,2.62,0,0,0,1.647-.543,2.386,2.386,0,0,0,.747-2.88,4.8,4.8,0,0,1,.8-4.957,4.352,4.352,0,0,1,3.283-1.406,4.156,4.156,0,0,1,1.951.465,4.674,4.674,0,0,1,2.018,2.136,3.541,3.541,0,0,1,.17,2.738,5.925,5.925,0,0,1-1.551,2.133,5.066,5.066,0,0,0-1.586,4.59,5.1,5.1,0,0,0,2.859,3.966,6.2,6.2,0,0,0,2.594.628,6.021,6.021,0,0,0,4.468-2.345,4.091,4.091,0,0,0,.581-2.632A4.2,4.2,0,0,1,753-575.086a4.75,4.75,0,0,1,.661-.047,4.262,4.262,0,0,1,4.212,3.37,3.64,3.64,0,0,1-1.745,4.237,5.132,5.132,0,0,0-2.741,4.126c-.25,1.578-.531,3.178-.8,4.725v.006c-.511,2.907-1.04,5.913-1.382,8.894-.417,3.647-.65,7.39-.875,11.01v.013c-.074,1.188-.15,2.417-.232,3.626C749.938-532.865,749.181-532.064,747.2-532.064Zm-25.985-58.525a3.2,3.2,0,0,0-3.191,3.192,3.2,3.2,0,0,0,3.191,3.191,3.2,3.2,0,0,0,3.192-3.191A3.2,3.2,0,0,0,721.215-590.589Z" transform="translate(-674.5 603.927)" fill="rgba(44,82,160,0.58)"/>
  </g>
</svg>
