<svg xmlns="http://www.w3.org/2000/svg" width="75" height="48.664" viewBox="0 0 75 48.664">
  <g id="medaille-forme-os" transform="translate(-8.405 -8.408)">
    <path id="Subtraction_1" data-name="Subtraction 1" d="M11.439,48.664h0a11.926,11.926,0,0,1-3.02-.4,11.429,11.429,0,0,1-7.067-5.626A11.292,11.292,0,0,1,.605,33.62a12.236,12.236,0,0,1,3.848-5.411c.553-.476.876-.816.893-1.15s-.264-.678-.864-1.31a14.736,14.736,0,0,1-3.551-5.49,10.523,10.523,0,0,1,.224-7.009A11.048,11.048,0,0,1,11.617,6.1h.071a10.759,10.759,0,0,1,5.229,1.284,12.249,12.249,0,0,1,3.971,3.606,2.587,2.587,0,0,0,2.263,1.217l.109,0c.247-.006.51-.009.829-.009.239,0,.479,0,.719,0h.026c.248,0,.492,0,.735,0,.551,0,.973-.008,1.366-.027a1.9,1.9,0,0,0,1.384-.415,1.833,1.833,0,0,0,.266-1.378c-.269-3.288.439-5.725,2.227-7.668A8.818,8.818,0,0,1,37.28,0a9.6,9.6,0,0,1,3.11.519,8.33,8.33,0,0,1,3.942,2.839,8.635,8.635,0,0,1,1.729,4.6c.029.776.029,1.6,0,2.372a1.412,1.412,0,0,0,1.475,1.621c.248.01.5.021.744.032.638.029,1.3.059,1.947.059a14.81,14.81,0,0,0,1.735-.092,3.026,3.026,0,0,0,1.765-1.186,11.4,11.4,0,0,1,7.378-4.89,11.579,11.579,0,0,1,2.151-.2A10.882,10.882,0,0,1,68.321,6.9a11.226,11.226,0,0,1,3.827,3.269,10.994,10.994,0,0,1,1.661,9.849,12.314,12.314,0,0,1-3.675,5.874,1.211,1.211,0,0,0-.517.886,1.2,1.2,0,0,0,.574.85A12.614,12.614,0,0,1,74.359,33.3a9.929,9.929,0,0,1,.564,4.792,12.247,12.247,0,0,1-4.817,8.255,10.024,10.024,0,0,1-4.484,1.883,14.045,14.045,0,0,1-2.035.154c-3.853,0-7.081-1.765-9.6-5.246a2.6,2.6,0,0,0-2.257-1.186h-.015c-4.092.028-8.324.058-12.484.058l-9.578.029c-.8,0-1.586-.007-2.348-.014S25.775,42.01,25,42.01a6.418,6.418,0,0,0-4.8,2.4C17.607,47.233,14.662,48.664,11.439,48.664ZM37.5,3.557a3.7,3.7,0,1,0,3.7,3.7A3.708,3.708,0,0,0,37.5,3.557Z" transform="translate(8.405 8.408)" fill="#2c52a0"/>
  </g>
</svg>
