<svg xmlns="http://www.w3.org/2000/svg" width="106.001" height="68.78" viewBox="0 0 106.001 68.78">
  <g id="medaille-forme-os-large" transform="translate(-8.405 -8.408)">
    <path id="Subtraction_7" data-name="Subtraction 7" d="M280.571-498.923h0a16.854,16.854,0,0,1-4.269-.572,16.154,16.154,0,0,1-9.988-7.953,15.959,15.959,0,0,1-1.053-12.74,17.3,17.3,0,0,1,5.439-7.646c1.032-.888,1.244-1.268,1.262-1.625.024-.484-.373-.958-1.221-1.851a20.834,20.834,0,0,1-5.019-7.76,14.874,14.874,0,0,1,.317-9.907,14.976,14.976,0,0,1,5.732-7.339,16.035,16.035,0,0,1,9.053-2.762h.1a15.206,15.206,0,0,1,7.392,1.815,17.309,17.309,0,0,1,5.612,5.1,3.658,3.658,0,0,0,3.2,1.72l.154,0c.362-.009.744-.013,1.2-.013.336,0,.678,0,1.029,0,.384,0,.7,0,1.034,0,.778,0,1.374-.012,1.931-.038a2.682,2.682,0,0,0,1.956-.587,2.59,2.59,0,0,0,.375-1.948c-.38-4.649.621-8.092,3.149-10.837a12.462,12.462,0,0,1,9.14-3.841,13.565,13.565,0,0,1,4.4.733,11.769,11.769,0,0,1,5.572,4.012,12.2,12.2,0,0,1,2.443,6.5c.041,1.1.041,2.257,0,3.353a2,2,0,0,0,2.085,2.29c.346.014.7.03,1.038.045.906.041,1.842.084,2.763.084a21,21,0,0,0,2.456-.129,4.279,4.279,0,0,0,2.495-1.677,16.109,16.109,0,0,1,10.428-6.911,16.36,16.36,0,0,1,3.039-.289,15.379,15.379,0,0,1,7.157,1.744,15.871,15.871,0,0,1,5.409,4.621,15.539,15.539,0,0,1,2.347,13.921,17.4,17.4,0,0,1-5.194,8.3,1.713,1.713,0,0,0-.73,1.253,1.7,1.7,0,0,0,.812,1.2,17.83,17.83,0,0,1,5.889,8.015,14.034,14.034,0,0,1,.8,6.772,17.086,17.086,0,0,1-2.213,6.516,17.11,17.11,0,0,1-4.6,5.152,14.168,14.168,0,0,1-6.338,2.661,19.848,19.848,0,0,1-2.876.217c-5.445,0-10.009-2.495-13.564-7.415a3.669,3.669,0,0,0-3.19-1.677c-5.46.038-11.648.082-17.666.082l-13.536.041c-1.131,0-2.245-.011-3.322-.021s-2.164-.021-3.261-.021c-2.47,0-4.691,1.11-6.789,3.395C289.29-500.945,285.127-498.923,280.571-498.923Zm36.83-63.753a5.24,5.24,0,0,0-5.234,5.234,5.24,5.24,0,0,0,5.234,5.234,5.24,5.24,0,0,0,5.234-5.234A5.24,5.24,0,0,0,317.4-562.676Z" transform="translate(-256 576.11)" fill="#7992c2"/>
  </g>
</svg>
