<svg xmlns="http://www.w3.org/2000/svg" width="63.353" height="76" viewBox="0 0 63.353 76">
  <g id="medaille-forme-cercle" transform="translate(-2.205 -0.239)">
    <path id="Subtraction_3" data-name="Subtraction 3" d="M799.883-521.261h0a32.906,32.906,0,0,1-6.259-.609,30.16,30.16,0,0,1-8.6-3.094,31.237,31.237,0,0,1-7.238-5.409,31.247,31.247,0,0,1-5.4-7.248,30.187,30.187,0,0,1-3.079-8.609,31.977,31.977,0,0,1-.091-11.838,30.877,30.877,0,0,1,3.945-10.427A31.247,31.247,0,0,1,790.05-582.02h-.026c1.912-.624,2.248-2.934,2.248-7.558a5.833,5.833,0,0,1,2.7-5.233,10.487,10.487,0,0,1,4.583-1.446l.243,0a10.462,10.462,0,0,1,4.587,1.434,5.857,5.857,0,0,1,2.707,5.248c0,4.631.627,6.9,2.033,7.362a31.01,31.01,0,0,1,8.785,4.346,31.3,31.3,0,0,1,6.943,6.771,31.046,31.046,0,0,1,4.562,8.658,31.12,31.12,0,0,1,1.64,10,30.982,30.982,0,0,1-2.45,12.135,31.073,31.073,0,0,1-6.681,9.91,31.072,31.072,0,0,1-9.91,6.681A30.981,30.981,0,0,1,799.883-521.261Zm0-70.875a4.2,4.2,0,0,0-4.2,4.2,4.205,4.205,0,0,0,4.2,4.2,4.2,4.2,0,0,0,4.2-4.2A4.2,4.2,0,0,0,799.884-592.135Z" transform="translate(-766 597)" fill="rgba(44,82,160,0.58)" stroke="rgba(0,0,0,0)" stroke-width="1"/>
  </g>
</svg>
