<svg xmlns="http://www.w3.org/2000/svg" width="85" height="55.153" viewBox="0 0 85 55.153">
  <g id="medaille-forme-os" transform="translate(-8.405 -8.408)">
    <path id="Subtraction_1" data-name="Subtraction 1" d="M12.964,55.153h0a13.516,13.516,0,0,1-3.423-.458,12.953,12.953,0,0,1-8.009-6.377A12.8,12.8,0,0,1,.686,38.1,13.868,13.868,0,0,1,5.048,31.97c.627-.539.993-.925,1.012-1.3s-.3-.768-.98-1.484A16.7,16.7,0,0,1,1.055,22.96a11.926,11.926,0,0,1,.254-7.943,12.521,12.521,0,0,1,11.856-8.1h.081a12.193,12.193,0,0,1,5.927,1.455,13.882,13.882,0,0,1,4.5,4.087,2.931,2.931,0,0,0,2.565,1.379l.124,0c.279-.007.578-.01.939-.01.271,0,.543,0,.815,0h.029c.281,0,.557,0,.833,0,.625,0,1.1-.009,1.548-.03a2.15,2.15,0,0,0,1.569-.471,2.078,2.078,0,0,0,.3-1.562c-.305-3.727.5-6.488,2.524-8.69A9.994,9.994,0,0,1,42.251,0a10.881,10.881,0,0,1,3.525.588,9.441,9.441,0,0,1,4.467,3.218,9.786,9.786,0,0,1,1.96,5.21c.032.88.032,1.809,0,2.689a1.6,1.6,0,0,0,1.672,1.837c.281.011.562.024.844.037.723.033,1.471.067,2.207.067a16.785,16.785,0,0,0,1.967-.1,3.43,3.43,0,0,0,2-1.344,12.919,12.919,0,0,1,8.362-5.542,13.123,13.123,0,0,1,2.438-.232,12.333,12.333,0,0,1,5.739,1.4,12.723,12.723,0,0,1,4.337,3.705A12.46,12.46,0,0,1,83.65,22.689a13.955,13.955,0,0,1-4.165,6.657,1.372,1.372,0,0,0-.585,1,1.36,1.36,0,0,0,.651.963,14.3,14.3,0,0,1,4.723,6.427,11.253,11.253,0,0,1,.639,5.43,13.88,13.88,0,0,1-5.459,9.356,11.361,11.361,0,0,1-5.082,2.134,15.918,15.918,0,0,1-2.307.174c-4.366,0-8.025-2-10.876-5.945a2.943,2.943,0,0,0-2.558-1.344h-.017c-4.638.032-9.434.065-14.148.065l-10.855.033c-.9,0-1.8-.008-2.662-.016s-1.737-.016-2.618-.016a7.273,7.273,0,0,0-5.444,2.721C19.955,53.531,16.617,55.153,12.964,55.153ZM42.5,4.031a4.2,4.2,0,1,0,4.2,4.2A4.2,4.2,0,0,0,42.5,4.031Z" transform="translate(8.405 8.408)" fill="#2c52a0"/>
  </g>
</svg>
