<svg xmlns="http://www.w3.org/2000/svg" width="66.205" height="70" viewBox="0 0 66.205 70">
  <g id="medaille-forme-coeur" transform="translate(-1.222 -0.5)">
    <path id="Subtraction_2" data-name="Subtraction 2" d="M33.435,70a5.131,5.131,0,0,1-2.323-1A117.8,117.8,0,0,1,11.207,52.748,41.671,41.671,0,0,1,1.254,36.825,28.236,28.236,0,0,1,.011,27.779,24.694,24.694,0,0,1,1.752,19.2,20.881,20.881,0,0,1,6.48,12.052,20.675,20.675,0,0,1,14.193,7.3a9.742,9.742,0,0,1,2.985-.664h3.65a13.361,13.361,0,0,1,4.979.885c0-.066,0-.136,0-.221a7.3,7.3,0,1,1,14.6,0c0,.023,0,.045,0,.067a19.841,19.841,0,0,1,5.31-.731,19.354,19.354,0,0,1,6.3,1A19.818,19.818,0,0,1,59.725,12.2a20.247,20.247,0,0,1,4.727,7.086,24.846,24.846,0,0,1,1.742,8.641,29.531,29.531,0,0,1-1.244,9.232A41.661,41.661,0,0,1,55,53.08C48.909,58.848,43.158,64.3,35.424,69A5.385,5.385,0,0,1,33.435,70ZM33.1,3.318A3.981,3.981,0,1,0,37.083,7.3,3.986,3.986,0,0,0,33.1,3.318Z" transform="translate(1.222 0.5)" fill="rgba(44,82,160,0.58)"/>
  </g>
</svg>
