<svg xmlns="http://www.w3.org/2000/svg" width="80" height="80" viewBox="0 0 69.7 72.3">
  <style type="text/css">
	.st0{fill:#7992C2;}
	.st1{fill:#2C52A0;}
</style>
<path class="st0" d="M69,31.9c0,0.2,0,0.3,0,0.4c0,0.1-0.1,0.3-0.1,0.5c-0.5,2.1-1,4.1-1.8,6.2c-0.8,2.6-2.2,5.1-4.1,7.1
	c0,0.2,0.1,0.5,0.2,0.8c0.5,2.1,0.7,4.2,0.7,6.3c0,0.3,0,0.7,0,1c-0.1,3.4-1.3,6.7-3.4,9.4c-4.1,5-11.9,7.5-23,7.5h-4.9
	C21,71.1,13.1,68.5,9,63.2C4.1,57,6.2,49,6.8,46.4v0l0.1-0.2c-2-2-3.5-4.5-4.3-7.2c-0.7-2-1.3-4-1.8-6.1c0-0.2-0.1-0.4-0.1-0.5
	c0-0.1,0-0.2,0-0.4c-0.2-2.5,0.3-5.1,1.4-7.4c1.9-3.8,5.6-6.3,11.1-7.3c0.7-2.2,1.8-4.2,3.4-5.9c1.3-1.4,2.9-2.5,4.6-3.4
	C23,7,24.9,6.4,26.9,6.1c1-2,2.8-3.5,4.9-4.3c1-0.4,2-0.6,3-0.6c1,0,1.9,0.2,2.8,0.6c2.1,0.8,3.9,2.3,5,4.3c2,0.3,4,1,5.8,1.9
	c1.7,0.8,3.3,2,4.6,3.4c1.6,1.7,2.8,3.7,3.4,5.9c5.5,1,9.2,3.5,11.1,7.3C68.7,26.9,69.2,29.4,69,31.9z"/>
<g id="medaille-forme-patte" transform="translate(-0.889 -0.4)">
	<path id="Exclusion_1" class="st1" d="M68.5,25c-1.9-3.8-5.6-6.3-11.1-7.3c-0.7-2.2-1.8-4.2-3.4-5.9c-1.3-1.4-2.9-2.5-4.6-3.4
		c-1.8-0.9-3.8-1.6-5.8-1.9c-1.1-2-2.9-3.5-5-4.3c-0.9-0.4-1.9-0.6-2.8-0.6c-1,0-2,0.2-3,0.6c-2.1,0.8-3.9,2.3-4.9,4.3
		c-2,0.3-4,1-5.8,1.9c-1.7,0.8-3.3,2-4.6,3.4c-1.6,1.7-2.8,3.7-3.4,5.9c-5.5,1-9.2,3.5-11.1,7.3c-1.1,2.3-1.5,4.8-1.4,7.4
		c0,0.2,0,0.3,0,0.4c0,0.1,0.1,0.3,0.1,0.5c0.5,2.1,1,4.1,1.8,6.1c0.9,2.7,2.4,5.2,4.3,7.2l-0.1,0.2v0C7.1,49.4,5,57.4,9.9,63.6
		c4.1,5.2,12,7.9,23.5,7.9h4.9c11.2,0,18.9-2.5,23-7.5c2.1-2.7,3.3-6,3.4-9.4c0-0.3,0-0.7,0-1c0-2.1-0.2-4.2-0.7-6.3
		C64.1,47,64,46.8,64,46.6c1.8-2.1,3.2-4.5,4.1-7.1c0.7-2,1.3-4.1,1.8-6.2c0-0.2,0.1-0.4,0.1-0.5c0-0.1,0-0.2,0-0.4
		C70.1,29.8,69.6,27.3,68.5,25z M42.3,16c1.1-0.9,2.5-1.4,3.9-1.5c0.7,0,1.4,0.2,2,0.5c1.2,0.4,2.2,1.2,2.8,2.3
		c0.6,1.1,1,2.3,1.1,3.6c0.3,0.6,0.4,1.3,0.3,2c0,1.8-0.3,3.5-1.1,5.1c-0.8,1.7-2,3.1-3.5,4.1c-1.1,0.8-2.4,1.2-3.7,1.2
		c-2.3,0-4.3-1.4-5.2-3.5C36.7,25.6,38.3,19,42.3,16z M35.7,3.8c2.5,0,4.6,2.1,4.6,4.6c0,2.5-2.1,4.6-4.6,4.6
		c-2.5,0-4.6-2.1-4.6-4.6C31.1,5.9,33.2,3.8,35.7,3.8z M19.9,18c0.9-2.1,3-3.4,5.3-3.3c2.6,0,4.8,1.3,6.2,3.9c0.4,0.5,0.6,1,0.6,1.7
		c0.7,1.6,1,3.3,1.1,5.1c0,1.8-0.5,3.6-1.4,5.1c-0.9,1.9-2.9,3.2-5,3.3c-1.5,0-3-0.6-4.2-1.6c-1.9-1.8-3.1-4.2-3.5-6.7
		C18.5,22.9,18.8,20.3,19.9,18z M10.1,41.9c-1-1.2-1.7-2.7-2.1-4.2c-0.4-1.5-0.3-3.2,0.1-4.7c0.5-2.4,2.6-4.1,5-4.1
		c1,0,2,0.3,2.9,0.8c1.5,0.7,2.8,1.9,3.7,3.3c0.8,1.3,1.2,2.8,1.2,4.3c0,3.9-1.3,6.6-3.6,7.2c-0.5,0.1-1,0.2-1.5,0.2
		C13.6,44.7,11.5,43.7,10.1,41.9z M53.3,64.3c-1.6,1.6-3.8,2.4-6,2.4c-0.6,0-1.1-0.1-1.7-0.2c-0.5-0.2-1.1-0.3-1.7-0.3
		c-0.5-0.1-1.1-0.2-1.6-0.3c-2.1-0.7-4.3-1.1-6.6-1.1c-2,0-4,0.4-5.9,1.1l-1.7,0.4l-0.2,0.1l-2,0.5c-0.5,0.1-1,0.1-1.5,0.1
		c-2.6,0-5.1-1.1-6.7-3.1c-1.6-2-2.2-4.7-1.6-7.2c0.6-2.4,1.7-4.6,3.3-6.6c1.5-2,3.1-3.8,4.6-5.6c1.5-1.8,3.1-3.6,4.6-5.6
		c1-1.2,2.2-2.3,3.6-3c1.2-0.7,2.5-1,3.9-1c2.8,0,5.5,1.5,7.7,4.4l0,0c2.9,3.5,5.9,7.2,8.8,11.1c1,1,1.8,2.2,2.4,3.5
		c0.6,1.4,0.9,2.9,0.9,4.4C55.8,60.6,54.9,62.8,53.3,64.3z M59.7,43.9c-1,0.6-2.3,1-3.5,1c-1.2,0-2.4-0.5-3.3-1.3
		c-1-1-1.6-2.3-1.7-3.7c-0.4-2.2,0-4.5,1.1-6.4c1.1-2,2.8-3.5,4.8-4.4c0.6-0.2,1.3-0.3,2-0.3c1.5,0,3,0.7,3.9,1.8
		c1.1,1.5,1.7,3.3,1.6,5.1C64.5,39.1,62.6,42.2,59.7,43.9z"/>
</g>
</svg>