<svg xmlns="http://www.w3.org/2000/svg" width="24.743" height="21.383" viewBox="0 0 24.743 21.383">
  <path id="basket-icon" d="M24.619,9.874H19.231L14.294,2.485a1.124,1.124,0,0,0-1.867,0L7.489,9.874H2.125A1.128,1.128,0,0,0,1,11a.947.947,0,0,0,.045.3L3.9,21.729a2.237,2.237,0,0,0,2.159,1.642H20.682a2.26,2.26,0,0,0,2.171-1.642L25.71,11.3l.034-.3A1.128,1.128,0,0,0,24.619,9.874ZM13.36,5.139l3.16,4.735H10.2Zm.011,13.732a2.249,2.249,0,1,1,2.249-2.249A2.256,2.256,0,0,1,13.372,18.872Z" transform="translate(-1 -1.988)" fill="#fff"/>
</svg>
