<svg xmlns="http://www.w3.org/2000/svg" width="52.503" height="92.056" viewBox="0 0 52.503 92.056">
  <g id="illustration_chat" data-name="illustration chat" transform="translate(-140.96 -149.521)">
    <path id="Path_14" data-name="Path 14" d="M178.472,303.413c-8.994,2.416-27.165,4.264-33.317-4.585-4.9-7.06,4.568-12.684,9.776-14.8,5.055-2.058,10.059-4.137,12.433-9.393a1.642,1.642,0,0,0-2.98-1.376c-3.355,7.423-13.7,7.556-19.405,12.592a12.006,12.006,0,0,0-2.027,15.558c3.581,5.152,11.506,6.26,17.207,6.713a58.159,58.159,0,0,0,19.489-1.641C181.688,305.931,180.5,302.869,178.472,303.413Z" transform="translate(0 -66.741)" fill="#b2b2b2"/>
    <path id="Path_15" data-name="Path 15" d="M186.645,225.236c-6.372-8.14-14.622-7.565-20.9.58-6.94,9-10.229,22.33-9.491,33.548.256,3.9,1.449,7.963,4.558,10.521,5.3,4.36,15.244,1.98,21.485,1.668,7.07-.352,9.448-3.982,10.61-10.807C194.89,249.08,187.427,225.134,186.645,225.236Z" transform="translate(-8.255 -37.983)" fill="#bfc0c2"/>
    <path id="Path_16" data-name="Path 16" d="M162.479,269.842c-3.109-2.558-4.3-6.618-4.559-10.521-.737-11.218,2.551-24.546,9.491-33.548,2.921-3.788,6.268-5.937,9.654-6.335-3.945-.21-7.923,1.975-11.323,6.386-6.94,9-10.229,22.33-9.491,33.548.256,3.9,1.449,7.963,4.558,10.521,2.915,2.4,7.235,2.756,11.572,2.541C168.626,272.471,165.018,271.932,162.479,269.842Z" transform="translate(-8.255 -37.989)" fill="#afafaf"/>
    <g id="Group_384" data-name="Group 384" transform="translate(141.371 149.521)">
      <path id="Path_17" data-name="Path 17" d="M166.729,159.126c1.516,4.1-12.725,10.539-14.243,6.434s-.316-15.046,1.816-15.981C155.937,148.863,165.21,155.022,166.729,159.126Z" transform="translate(-147.265 -149.521)" fill="#bfc0c2"/>
      <path id="Path_18" data-name="Path 18" d="M167.433,159.507c-1.234-3.336-7.591-8.029-10.806-9.285,3.089,2.207,7.047,6.147,7.778,8.9.807,3.042-6.738,6.517-11.3,6.552.03.091.058.184.089.269C154.708,170.046,168.949,163.611,167.433,159.507Z" transform="translate(-147.968 -149.902)" fill="#afafaf"/>
      <path id="Path_19" data-name="Path 19" d="M163.447,169.238c.837,2.258-6.993,5.793-7.826,3.539s-.177-8.272,1-8.785C157.515,163.6,162.614,166.984,163.447,169.238Z" transform="translate(-149.134 -157.368)" fill="#fbaba5"/>
      <path id="Path_20" data-name="Path 20" d="M221.612,163.413c-2.542,3.561,9.509,13.512,12.051,9.949s4.259-14.434,2.448-15.9C234.721,156.346,224.156,159.851,221.612,163.413Z" transform="translate(-185.012 -153.724)" fill="#bfc0c2"/>
      <path id="Path_21" data-name="Path 21" d="M225.476,162.68c1.556-2.178,6.11-4.333,9.732-5.424-2.975-.042-11.367,3.036-13.6,6.158-2.542,3.561,9.509,13.512,12.051,9.949.088-.122.173-.255.259-.394C229.6,171.335,223.612,165.291,225.476,162.68Z" transform="translate(-185.012 -153.724)" fill="#afafaf"/>
      <path id="Path_22" data-name="Path 22" d="M232.314,173.269c-1.4,1.957,5.227,7.426,6.624,5.47s2.342-7.935,1.346-8.74C239.521,169.385,233.712,171.312,232.314,173.269Z" transform="translate(-190.914 -160.587)" fill="#fbaba5"/>
      <path id="Path_23" data-name="Path 23" d="M187.872,170.541c-3.365-5.505-6.2-9.022-17.287-11.112s-25.058,10.722-28.168,22.367c-3.634,13.605,11.276,19.985,21.989,21.371,10.681,1.382,25.872-.822,29.136-12.945C195.284,183.754,191.093,175.808,187.872,170.541Z" transform="translate(-141.859 -154.783)" fill="#bfc0c2"/>
      <path id="Path_24" data-name="Path 24" d="M187.872,170.541c-3.365-5.505-6.2-9.022-17.287-11.112s-25.058,10.722-28.168,22.367c-3.634,13.605,11.276,19.985,21.989,21.371,10.681,1.382,25.872-.822,29.136-12.945C195.284,183.754,191.093,175.808,187.872,170.541Z" transform="translate(-141.859 -154.783)" fill="#bfc0c2"/>
      <path id="Path_25" data-name="Path 25" d="M193.622,218.756c-3.265,12.122-18.457,14.327-29.137,12.945-9.647-1.245-22.689-6.548-22.54-17.521-1.283,11.889,12.429,17.569,22.462,18.865,10.681,1.382,25.872-.822,29.136-12.945a12.36,12.36,0,0,0,.393-3.137A11.774,11.774,0,0,1,193.622,218.756Z" transform="translate(-141.86 -184.661)" fill="#afafaf"/>
      <path id="Path_26" data-name="Path 26" d="M193.28,216.069c-1.429-2.336-2.729-4.385-7.436-5.271s-10.434,3.518-11.754,8.461c-1.542,5.772,4.785,8.482,9.333,9.069,4.532.587,10.981-.349,12.366-5.5C196.527,220.088,194.646,218.3,193.28,216.069Z" transform="translate(-159.247 -182.76)" fill="#fefdfd"/>
      <g id="Group_383" data-name="Group 383" transform="translate(19.51 33.276)">
        <path id="Path_27" data-name="Path 27" d="M196.058,224.088c-.158-.321-.627-.036-.474.28a3.542,3.542,0,0,1-.716,4.3,2.38,2.38,0,0,1-2.8-.27,3.606,3.606,0,0,1-1.054-3.5.282.282,0,0,0-.3-.336.26.26,0,0,0-.408.156c-.37,1.677-1.127,3.021-2.976,3.224-2.1.231-2.6-3.227-1.237-5.244.2-.293-.293-.4-.532-.135-1.7,1.836-1.028,5.545,1.049,5.886a3.425,3.425,0,0,0,3.819-2.325c.229,2.047,1.838,3.945,4.122,3.309C196.728,228.819,196.866,225.753,196.058,224.088Z" transform="translate(-184.595 -222.409)" fill="#4c372f"/>
        <path id="Path_28" data-name="Path 28" d="M198.017,223.533a2.559,2.559,0,0,1-1.8,1.264,2.293,2.293,0,0,1-1.4-1.691c.061-.465.828-.745,1.71-.625S198.077,223.07,198.017,223.533Z" transform="translate(-190.151 -222.433)" fill="#4c372f"/>
      </g>
      <path id="Path_29" data-name="Path 29" d="M213.954,207.1a1.915,1.915,0,0,0-1.573,2.572c.192.488.984.268.791-.223a1.091,1.091,0,0,1,.842-1.526c.979-.261,1.371.668,1.361,1.482a.41.41,0,0,0,.82-.006C216.215,208.08,215.407,206.86,213.954,207.1Z" transform="translate(-180.113 -180.799)" fill="#4c372f"/>
      <path id="Path_30" data-name="Path 30" d="M184.125,203.1a1.914,1.914,0,0,1,.841,2.893c-.312.421-1.02,0-.7-.423a1.093,1.093,0,0,0-.411-1.695c-.877-.508-1.5.287-1.7,1.073a.41.41,0,0,1-.789-.22C181.685,203.444,182.786,202.477,184.125,203.1Z" transform="translate(-163.319 -178.533)" fill="#4c372f"/>
    </g>
    <path id="Path_31" data-name="Path 31" d="M187.687,285.031c-.689-5.889-2.326-19.013-3.04-19.007-3.6-2.714-4.5,3.272-4.674,5.686-.473,6.746-1.565,14.093-.567,20.775.467,3.131,5.385,10.26,8.006,4.543C189.083,293.386,188.135,288.869,187.687,285.031Z" transform="translate(-20.673 -62.939)" fill="#b2b2b2"/>
    <path id="Path_32" data-name="Path 32" d="M182.449,325.54c-2.7-.033-6.794.367-7.253,3.1-.206,1.222.876,2.223,2.027,2.8a12.911,12.911,0,0,0,5.509,1.012c2.615.031,6.72-.821,6.853-3.606C189.731,325.65,185.12,325.2,182.449,325.54Z" transform="translate(-18.592 -95.608)" fill="#b2b2b2"/>
    <path id="Path_33" data-name="Path 33" d="M218.024,284.1c-.689-5.889-2.324-19.013-3.039-19.006-3.6-2.714-4.5,3.271-4.674,5.686-.473,6.746-1.565,14.093-.567,20.775.467,3.131,5.385,10.26,8.007,4.543C219.421,292.46,218.472,287.943,218.024,284.1Z" transform="translate(-37.16 -62.436)" fill="#b2b2b2"/>
    <path id="Path_34" data-name="Path 34" d="M215.354,324.91c-2.311.016-5.821.49-6.264,3.227a2.842,2.842,0,0,0,1.685,2.761,9.46,9.46,0,0,0,4.694.909c2.237-.017,5.767-.942,5.93-3.723C221.585,324.887,217.646,324.522,215.354,324.91Z" transform="translate(-37.012 -95.249)" fill="#b2b2b2"/>
    <path id="Path_35" data-name="Path 35" d="M228.981,331.282c-.062-.069-.323.026-.325.118a8.181,8.181,0,0,1-.882,3.161c-.067.042-.1.1-.059.141-.031.1.173.1.276.021C230.545,334.6,229.415,331.768,228.981,331.282Z" transform="translate(-47.14 -98.768)" fill="#939393"/>
    <path id="Path_36" data-name="Path 36" d="M218.023,331.878c-.061-.069-.323.026-.324.118a8.2,8.2,0,0,1-.882,3.162c-.067.042-.1.1-.059.141-.031.1.173.1.276.021C219.339,336.285,218.457,332.364,218.023,331.878Z" transform="translate(-41.185 -99.092)" fill="#939393"/>
    <path id="Path_37" data-name="Path 37" d="M196.863,333.23c-.054-.074-.324-.008-.335.084a8.189,8.189,0,0,1-1.2,3.053c-.071.034-.106.095-.074.134-.041.1.162.116.272.049C198.075,336.694,197.244,333.758,196.863,333.23Z" transform="translate(-29.498 -99.822)" fill="#939393"/>
    <path id="Path_38" data-name="Path 38" d="M185.9,332.687c-.054-.075-.324-.008-.335.084a8.19,8.19,0,0,1-1.2,3.053c-.071.034-.106.095-.074.134-.042.095.161.115.272.049C186.755,337.206,186.284,333.214,185.9,332.687Z" transform="translate(-23.542 -99.526)" fill="#939393"/>
    <path id="Path_39" data-name="Path 39" d="M171.343,257.362c.139-.039.187-.47.058-.536a12.8,12.8,0,0,1-3.828-3.415c-.012-.122-.081-.206-.157-.18-.117-.112-.257.174-.219.372C164.254,256.171,170.363,257.635,171.343,257.362Z" transform="translate(-13.827 -56.348)" fill="#afafaf"/>
    <path id="Path_40" data-name="Path 40" d="M151.867,203.62c.177-.082.152-.7-.041-.727-3.723-.6-6.2-3.542-6.108-3.285C142.363,203.68,150.622,204.2,151.867,203.62Z" transform="translate(-2.153 -27.212)" fill="#afafaf"/>
    <path id="Path_41" data-name="Path 41" d="M149.49,213.179c.159-.112.027-.7-.168-.709-3.091-.093-6.943-2.438-6.806-2.2C139.931,214.868,148.367,213.97,149.49,213.179Z" transform="translate(-0.58 -33.005)" fill="#afafaf"/>
    <path id="Path_42" data-name="Path 42" d="M245.269,207.564c.151-.227-2.953,2.042-6.713,1.744-.195-.015-.364.575-.211.7C239.417,210.864,247.564,212.314,245.269,207.564Z" transform="translate(-52.893 -31.535)" fill="#afafaf"/>
    <path id="Path_43" data-name="Path 43" d="M246.641,218.415c.189-.2-4.109,1.169-7.134.527-.191-.041-.459.5-.331.649C240.08,220.625,248.063,223.495,246.641,218.415Z" transform="translate(-53.359 -37.43)" fill="#afafaf"/>
    <path id="Path_44" data-name="Path 44" d="M168.119,270.088c.177-.045.235-.558.07-.638a16.372,16.372,0,0,1-4.913-4.107c-.017-.146-.105-.247-.2-.216-.15-.135-.326.2-.276.442C159.067,268.6,166.872,270.405,168.119,270.088Z" transform="translate(-11.324 -62.811)" fill="#afafaf"/>
    <path id="Path_45" data-name="Path 45" d="M163.681,280.346c.139-.039.187-.47.058-.536a12.788,12.788,0,0,1-3.828-3.415c-.012-.122-.081-.206-.157-.18-.117-.112-.257.174-.219.373C156.592,279.156,162.7,280.62,163.681,280.346Z" transform="translate(-9.663 -68.84)" fill="#afafaf"/>
    <path id="Path_46" data-name="Path 46" d="M190.111,225.986a.239.239,0,1,1-.238-.238A.239.239,0,0,1,190.111,225.986Z" transform="translate(-26.453 -41.427)" fill="#b2b2b2"/>
    <circle id="Ellipse_19" data-name="Ellipse 19" cx="0.358" cy="0.358" r="0.358" transform="translate(163.42 185.991)" fill="#b2b2b2"/>
    <path id="Path_47" data-name="Path 47" d="M194.245,228.076c0,.132-.214.238-.477.238s-.477-.106-.477-.238.214-.238.477-.238S194.245,227.944,194.245,228.076Z" transform="translate(-28.44 -42.562)" fill="#b2b2b2"/>
    <path id="Path_48" data-name="Path 48" d="M200.8,229.121c0,.132-.16.238-.358.238s-.358-.106-.358-.238.16-.239.358-.239S200.8,228.989,200.8,229.121Z" transform="translate(-32.131 -43.13)" fill="#b2b2b2"/>
    <ellipse id="Ellipse_20" data-name="Ellipse 20" cx="0.447" cy="0.238" rx="0.447" ry="0.238" transform="translate(169.77 186.229)" fill="#b2b2b2"/>
    <path id="Path_49" data-name="Path 49" d="M203.932,233.822c0,.132-.16.239-.358.239s-.357-.107-.357-.239.16-.238.357-.238S203.932,233.691,203.932,233.822Z" transform="translate(-33.835 -45.685)" fill="#b2b2b2"/>
    <path id="Path_50" data-name="Path 50" d="M201.559,231.852c0,.2-.213.358-.477.358s-.477-.16-.477-.358.214-.358.477-.358S201.559,231.654,201.559,231.852Z" transform="translate(-32.415 -44.549)" fill="#b2b2b2"/>
  </g>
</svg>
