<svg xmlns="http://www.w3.org/2000/svg" width="63.75" height="91.151" viewBox="0 0 63.75 91.151">
  <g id="illustration_chien" data-name="illustration chien" transform="translate(-198.855 -87)">
    <path id="Path_51" data-name="Path 51" d="M327.862,240.776a.519.519,0,0,0-.991,0c-2.772,8.572-7.831,18.335-18.009,18.813-.66.031-.663,1.059,0,1.028.034,0,.066-.006.1-.008C317.95,271.493,331.543,249.62,327.862,240.776Z" transform="translate(-70.596 -99.708)" fill="#895518"/>
    <path id="Path_52" data-name="Path 52" d="M257.175,183.616a1.493,1.493,0,0,0-.84-.779c-3.635-3.138-9.433-6.092-13.555-1.933-2.165,2.181-3.143,4.861-3.975,7.766-1.263,4.412-2.786,8.748-4.092,13.147-1.873,6.306-6.751,15.5-4.2,22.017,1.664,4.243,8.952,5.709,12.969,6.524,8.184,1.661,24.468,1.257,27.6-8.649C275.384,208.14,262.543,194.926,257.175,183.616Z" transform="translate(-17.793 -57.442)" fill="#f4af49"/>
    <path id="Path_53" data-name="Path 53" d="M303.316,201.671a14.046,14.046,0,0,0-1.6-2.889c-3.07-5.313-6.647-10.4-8.9-15.16a1.493,1.493,0,0,0-.84-.779c-2.456-2.121-5.9-4.154-9.149-3.968,2.987.171,6.051,2.033,8.292,3.968a1.493,1.493,0,0,1,.84.779c1.962,4.135,3.951,6.793,6.709,11.361.176,1.4.846,4.539,1.2,5.924.192.747,1.03,1.236,1.563,1.706,1.291,1.135,1.421,2.336,1.293,3.984a3.089,3.089,0,0,0,.477,2.555,2.057,2.057,0,0,1,.543,1.9,4.242,4.242,0,0,0-.312,2.131,22.62,22.62,0,0,1-1.5,11.224c-.257.631-.544,1.251-.761,1.9a4.818,4.818,0,0,1-.676,1.631,4.331,4.331,0,0,1-1.55.884,23.048,23.048,0,0,1-3.879,1.309,36.332,36.332,0,0,1-8.313.98c8.116.068,17.655-2.053,19.977-9.392C308.893,214.878,306.706,208.13,303.316,201.671Z" transform="translate(-53.433 -57.448)" fill="#e0a353"/>
    <path id="Path_54" data-name="Path 54" d="M312.165,244.991c-.625-7.264-2.144-23.458-3.022-23.477-4.328-3.468-5.659,3.854-5.957,6.813-.836,8.275-2.454,17.264-1.478,25.515.456,3.868,6.233,12.813,9.67,5.885C313.569,255.314,312.572,249.727,312.165,244.991Z" transform="translate(-66.875 -85.497)" fill="#a57029"/>
    <path id="Path_55" data-name="Path 55" d="M303.288,323.866c-2.842-.065-7.171.385-7.818,3.731a3.49,3.49,0,0,0,1.966,3.457,11.585,11.585,0,0,0,5.735,1.294c2.75.065,7.125-.94,7.429-4.353C310.949,324.072,306.122,323.476,303.288,323.866Z" transform="translate(-62.812 -154.824)" fill="#a57029"/>
    <path id="Path_56" data-name="Path 56" d="M259.094,246.957c-.625-7.264-2.145-23.458-3.022-23.476-4.328-3.47-5.659,3.853-5.958,6.814-.836,8.274-2.454,17.263-1.477,25.515.456,3.867,6.232,12.811,9.67,5.883C260.5,257.28,259.5,251.694,259.094,246.957Z" transform="translate(-32.267 -86.818)" fill="#a57029"/>
    <path id="Path_57" data-name="Path 57" d="M251.963,325.765c-2.842-.064-7.171.387-7.818,3.733a3.491,3.491,0,0,0,1.965,3.457,11.617,11.617,0,0,0,5.736,1.295c2.751.062,7.125-.941,7.43-4.355C259.623,325.972,254.8,325.378,251.963,325.765Z" transform="translate(-29.427 -156.101)" fill="#a57029"/>
    <path id="Path_58" data-name="Path 58" d="M302.376,91.9c-1.96,2.125,5.274,14.36,9.5,19.388,3.292,3.915,10.1,11.012,15.648,6.99,4.24-3.072-2.176-15.752-3.47-19.236-3.466-9.332-9.274-15.081-17.734-10.345A17.17,17.17,0,0,0,302.376,91.9Z" transform="translate(-66.349 0)" fill="#a57029"/>
    <path id="Path_59" data-name="Path 59" d="M225.433,91.9c1.959,2.125-5.275,14.36-9.5,19.388-3.292,3.915-10.1,11.012-15.648,6.99-4.24-3.072,2.175-15.752,3.47-19.236,3.466-9.332,9.274-15.081,17.735-10.345A17.189,17.189,0,0,1,225.433,91.9Z" transform="translate(0 0)" fill="#a57029"/>
    <path id="Path_60" data-name="Path 60" d="M268.62,113.608c-1.079-7.674-5.119-22.321-20.711-21.337-10.494.663-14.692,14.249-15.784,21.018s-6.531,6.525-3.754,13.754c2.439,6.346,8.68,6.151,14.025,5.718,1.041.822,3.408,1.4,6.165,1.4a13.45,13.45,0,0,0,5.471-.976c6.463.689,13.7.949,16.462-3.94C275.589,120.218,269.458,119.573,268.62,113.608Z" transform="translate(-19.311 -3.511)" fill="#f4af49"/>
    <g id="Group_386" data-name="Group 386" transform="translate(225.814 92.511)">
      <path id="Path_61" data-name="Path 61" d="M297.359,121.389c-.654-4.986-2.476-12.913-7.662-17.586,4.146,4.875,6.3,13.456,6.894,18.1.782,6.135,5.739,5.148.984,14.431-2.576,5.029-8.4,3.989-14.431,3.28-1.141.606-3.771,1.981-5.876,1.981a14.982,14.982,0,0,1-2.838-.261,13.6,13.6,0,0,0,4.209.6,11.82,11.82,0,0,0,5.106-.976c6.031.689,12.788.949,15.363-3.94C303.863,128,298.142,127.354,297.359,121.389Z" transform="translate(-274.431 -103.803)" fill="#e0a353"/>
    </g>
    <path id="Path_62" data-name="Path 62" d="M273.835,157.192c-1.647-2.377-3.142-4.461-8.161-5.11s-10.794,4.34-11.886,9.634c-1.278,6.184,5.561,8.657,10.391,9s11.562-1.033,12.712-6.544C277.505,161.237,275.412,159.467,273.835,157.192Z" transform="translate(-35.371 -42.356)" fill="#a57029"/>
    <path id="Path_63" data-name="Path 63" d="M281.05,171.268c-.185-.329-.664,0-.483.324.774,1.39.817,3.478-.5,4.576a2.515,2.515,0,0,1-2.968-.116,3.811,3.811,0,0,1-1.323-3.627.3.3,0,0,0-.341-.336.277.277,0,0,0-.422.189c-.289,1.793-1.006,3.254-2.944,3.58-2.2.369-2.941-3.247-1.621-5.456.191-.321-.335-.4-.57-.112-1.681,2.041-.748,5.91,1.463,6.146a3.616,3.616,0,0,0,3.886-2.685c.366,2.147,2.179,4.05,4.548,3.242C282.043,176.218,282,172.975,281.05,171.268Z" transform="translate(-45.719 -54.388)" fill="#4c372f"/>
    <path id="Path_64" data-name="Path 64" d="M286.26,166.532c-.057.772-2.152,2.378-2.851,2.263-1.062-.173-2.538-1.894-2.478-2.667s1.3-1.31,2.77-1.2S286.32,165.76,286.26,166.532Z" transform="translate(-53.7 -51.041)" fill="#4c372f"/>
    <path id="Path_65" data-name="Path 65" d="M306.5,146.3a1.693,1.693,0,0,0-1.258,2.349c.194.419.882.187.686-.238a.966.966,0,0,1,.665-1.391c.852-.279,1.246.521,1.276,1.241a.363.363,0,0,0,.723-.047C308.544,147.042,307.769,146.006,306.5,146.3Z" transform="translate(-69.565 -38.826)" fill="#4c372f"/>
    <path id="Path_66" data-name="Path 66" d="M267.311,133.786c-2.846-.228-3.768,2.1-3.785,3.945a2.814,2.814,0,0,0,3.533,2.873C269.847,139.653,270.155,134.015,267.311,133.786Z" transform="translate(-42.304 -30.608)" fill="#a57029"/>
    <path id="Path_67" data-name="Path 67" d="M269.206,143.448a1.693,1.693,0,0,1,.888,2.512c-.254.386-.9.052-.642-.338a.964.964,0,0,0-.448-1.474c-.8-.4-1.31.328-1.448,1.032a.363.363,0,0,1-.708-.156C267.071,143.877,267.994,142.97,269.206,143.448Z" transform="translate(-44.52 -36.904)" fill="#4c372f"/>
    <path id="Path_68" data-name="Path 68" d="M268.193,343.374c-.039-.063-.236-.022-.244.054a6.9,6.9,0,0,1-.874,2.467c-.051.025-.077.073-.054.107-.03.077.118.1.2.054C269.078,346.3,268.47,343.829,268.193,343.374Z" transform="translate(-44.672 -167.981)" fill="#895518"/>
    <path id="Path_69" data-name="Path 69" d="M277.857,341.806c-.039-.064-.235-.022-.243.053a6.908,6.908,0,0,1-.874,2.467c-.052.025-.077.073-.054.107-.03.077.118.1.2.054C278.742,344.73,278.134,342.262,277.857,341.806Z" transform="translate(-51.007 -166.928)" fill="#895518"/>
    <path id="Path_70" data-name="Path 70" d="M257.089,342.01c-.04-.065-.236-.022-.244.053a6.89,6.89,0,0,1-.874,2.467c-.051.025-.077.073-.054.107-.031.077.117.1.2.054C257.712,345.789,257.366,342.465,257.089,342.01Z" transform="translate(-37.396 -167.064)" fill="#895518"/>
    <path id="Path_71" data-name="Path 71" d="M320.434,341.284c-.039-.064-.235-.022-.244.053a6.9,6.9,0,0,1-.874,2.467c-.051.025-.077.073-.054.107-.029.077.118.1.2.054C321.319,344.208,320.711,341.74,320.434,341.284Z" transform="translate(-78.912 -166.577)" fill="#895518"/>
    <path id="Path_72" data-name="Path 72" d="M330.1,339.717c-.039-.064-.236-.022-.244.053a6.907,6.907,0,0,1-.874,2.467c-.052.025-.077.073-.054.107-.029.077.118.1.2.054C330.983,342.64,330.375,340.172,330.1,339.717Z" transform="translate(-85.247 -165.524)" fill="#895518"/>
    <path id="Path_73" data-name="Path 73" d="M309.33,339.921c-.04-.065-.236-.023-.244.053a6.887,6.887,0,0,1-.874,2.467c-.051.025-.077.072-.054.107-.03.077.118.1.2.054C309.954,343.7,309.608,340.376,309.33,339.921Z" transform="translate(-71.637 -165.66)" fill="#895518"/>
    <path id="Path_74" data-name="Path 74" d="M282.7,178.337c0,.071-.115.129-.257.129s-.257-.058-.257-.129.115-.129.257-.129S282.7,178.266,282.7,178.337Z" transform="translate(-54.644 -59.813)" fill="#996425"/>
    <path id="Path_75" data-name="Path 75" d="M282.1,180.427c0,.071-.1.129-.214.129s-.214-.058-.214-.129.1-.129.214-.129S282.1,180.356,282.1,180.427Z" transform="translate(-54.303 -61.184)" fill="#996425"/>
    <path id="Path_76" data-name="Path 76" d="M279.052,179.772c0,.142-.058.257-.129.257s-.129-.115-.129-.257.057-.257.129-.257S279.052,179.63,279.052,179.772Z" transform="translate(-52.422 -60.666)" fill="#996425"/>
    <ellipse id="Ellipse_21" data-name="Ellipse 21" cx="0.129" cy="0.171" rx="0.129" ry="0.171" transform="translate(226.283 117.767)" fill="#996425"/>
    <ellipse id="Ellipse_22" data-name="Ellipse 22" cx="0.3" cy="0.129" rx="0.3" ry="0.129" transform="translate(225.301 118.215)" fill="#996425"/>
    <ellipse id="Ellipse_23" data-name="Ellipse 23" cx="0.214" cy="0.171" rx="0.214" ry="0.171" transform="translate(225.207 119.475)" fill="#996425"/>
    <path id="Path_77" data-name="Path 77" d="M280.354,182.645a.257.257,0,1,1-.257-.257A.257.257,0,0,1,280.354,182.645Z" transform="translate(-53.102 -62.55)" fill="#996425"/>
    <circle id="Ellipse_24" data-name="Ellipse 24" cx="0.257" cy="0.257" r="0.257" transform="translate(224.669 118.579)" fill="#996425"/>
    <ellipse id="Ellipse_25" data-name="Ellipse 25" cx="0.3" cy="0.343" rx="0.3" ry="0.343" transform="translate(230.877 119.212)" fill="#996425"/>
    <ellipse id="Ellipse_26" data-name="Ellipse 26" cx="0.171" cy="0.257" rx="0.171" ry="0.257" transform="translate(233.119 119.209)" fill="#996425"/>
    <ellipse id="Ellipse_27" data-name="Ellipse 27" cx="0.214" cy="0.171" rx="0.214" ry="0.171" transform="translate(232.132 120.195)" fill="#996425"/>
    <ellipse id="Ellipse_28" data-name="Ellipse 28" cx="0.129" cy="0.214" rx="0.129" ry="0.214" transform="translate(234.015 120.556)" fill="#996425"/>
    <ellipse id="Ellipse_29" data-name="Ellipse 29" cx="0.171" cy="0.043" rx="0.171" ry="0.043" transform="translate(232.399 121.269)" fill="#996425"/>
    <ellipse id="Ellipse_30" data-name="Ellipse 30" cx="0.257" cy="0.214" rx="0.257" ry="0.214" transform="translate(234.472 118.848)" fill="#996425"/>
    <path id="Path_78" data-name="Path 78" d="M296.553,178.422c0,.118-.057.214-.128.214s-.129-.1-.129-.214.057-.214.129-.214S296.553,178.3,296.553,178.422Z" transform="translate(-63.899 -59.81)" fill="#996425"/>
  </g>
</svg>
